<svg version="1.0" xmlns="http://www.w3.org/2000/svg" width="666.667" fill="#ff8c00" height="666.667" viewBox="0 0 500 500"><path d="M226.9 49c-77.1 9.7-140.2 67.1-157.4 143-3.5 15.5-4.5 28.1-4.5 58.4 0 14.9-.3 28-.6 29.1-.3 1.2-2.8 3.1-6.4 4.8-8 3.7-15 11-19.6 20.1-3.1 6.5-3.7 8.7-4.1 16.3-.5 8.5-.2 10 9.1 46.8 10.4 41 12.7 47.5 20.1 55.4 8.2 8.7 24.5 15 35.5 13.7 4.4-.5 4.6-.4 7.5 3.6 3.8 5.3 10.4 10.4 15.3 11.8 5.5 1.5 17.1 1.2 23.2-.6 13.8-4.1 22.4-14.5 23.6-28.6.5-5.5-.3-9.6-6.1-32.3-3.6-14.3-11.3-44.7-17.1-67.5-14.8-58.1-14.1-55.9-18-61.8-3.7-5.6-10.2-10.5-16.8-12.4l-3.9-1.2.6-17.5c.9-26.9 5.2-43.7 16.4-65 20.6-39.3 58.2-66.8 102.3-74.8 19.8-3.6 45.7-1.9 66 4.3 35.4 10.9 66.9 37.2 84.3 70.5 11.2 21.3 15.5 38.1 16.4 65l.6 17.5-3.9 1.2c-6.6 1.9-13.1 6.8-16.8 12.4-3.9 5.9-3.2 3.7-18 61.8-5.8 22.8-13.5 53.2-17.1 67.5-5.8 22.7-6.6 26.8-6.1 32.3 1.2 14.1 9.8 24.5 23.6 28.6 6.1 1.8 18.7 2.1 24.2.6 4.8-1.4 11.5-6.5 15.3-11.7 2.9-4 3.2-4.2 7.5-3.7 5.8.7 17.4-1.7 23.8-5 7.5-3.8 15.7-12.3 19.2-19.8 4.1-9 22-80.9 22-88.6 0-6.3-2-14.4-5.2-20.5-4-7.9-16.1-18.5-23.2-20.3l-2.6-.6v-29.4c0-38.8-1.7-54-8.7-75.9-5.4-17-16.1-38.2-26.8-53-4.3-6-20.3-24.3-22-25.3-.8-.4-3.3-2.5-5.7-4.8-16.2-15.1-42.8-30-66.4-37.2-19.7-6-29-7.4-51.9-7.8-11.5-.1-24 .1-27.6.6m49.6 14.5c60 9.3 110.6 50.2 133.4 107.8 7.8 19.5 11.1 38.6 11.1 63.5V253l-2.2-1.4c-1.3-.8-4-1.8-6.1-2.1-2-.4-4-1.2-4.4-1.8s-.8-8.3-.9-17.2c-.3-26.7-4.7-45.3-16.4-69-21.5-43.4-60.9-73.6-110-84.2-6.8-1.4-13-1.8-30.5-1.8s-23.7.4-30.5 1.8c-21.8 4.7-44.1 14.4-60.9 26.4-11.8 8.5-26.6 23-35.4 34.8-7.2 9.6-19.1 32.5-22.6 43.5-5.4 17-8.1 35.7-8.1 56.2v9.7l-4.9 1.5c-2.7.8-5.9 1.9-7 2.6-2.1 1.1-2.1 1-2.1-17.2 0-31.3 5.1-53 18.6-80 11.7-23.4 32.9-47.7 54.7-62.9 20.9-14.4 47.5-25 71.7-28.4 5.8-.8 11.9-1.7 13.5-1.9 5.5-.8 28.9.3 39 1.9M108.6 262.9c7.6 3.5 9 6.4 16.4 35.9 3.8 14.7 11.9 46.5 18.1 70.7s11.5 46.7 11.7 50c.3 5.2-.1 6.6-2.4 10.2-4.1 6.2-11.2 9.8-19.4 9.8-11.2 0-16.6-5-20-18.8-1-4-6.6-26.1-12.5-49.2C79.2 287.6 79 286.9 79 279.9c0-6.3.2-6.8 4.1-11.3 6.3-7.1 17-9.6 25.5-5.7m299.1-.4c3.9 1.2 6.2 2.7 9.2 6.2 3.9 4.4 4.1 4.9 4.1 11.2 0 7-.2 7.7-21.5 91.6-5.9 23.1-11.5 45.2-12.5 49.2-3.4 13.5-8.8 18.8-19.5 18.8-7.7 0-14.9-3.8-18.9-9.8-2.3-3.6-2.7-5-2.4-10.2.2-3.3 5-23.8 10.5-45.5 5.6-21.7 13.6-53 17.7-69.5 4.2-16.5 8.3-31.4 9.2-33.2 4.6-9 13.1-12.1 24.1-8.8M71.4 313C81.3 351.9 99 421.9 99 422.6c0 1.3-10.8-.4-15.3-2.4-6-2.7-12.4-8.6-15.1-14.1-2-3.9-18-64.4-20.8-78.1-2-10.5 4.1-23.8 14-30.1 2.5-1.6 4.7-2.8 4.8-2.6.2.1 2.3 8.1 4.8 17.7m368.8-13.7c8.4 6.4 13.8 19.3 11.9 28.7-2.6 13.5-18.7 74.2-20.7 78.1-2.7 5.5-9.1 11.4-15 14.1-4.7 2-14.4 3.6-14.4 2.3 0-.4 6.1-24.9 13.6-54.4s14.3-56.3 15-59.6c2.1-8.6 3.4-12.5 4.4-12.5.5 0 2.8 1.5 5.2 3.3"/><path d="M245 252c-2 2-2 3.3-2 85s0 83 2 85c2.6 2.6 8.1 2.6 10.3.2 1.6-1.7 1.7-9.1 1.7-85.4 0-79.6-.1-83.6-1.8-85.1-2.5-2.3-7.8-2.1-10.2.3m-24.6 30.4c-1.8 1.4-1.9 3.3-2.2 52.3-.1 27.9 0 51.8.3 53 .8 3.4 3.3 5.3 6.9 5.3 6.9 0 6.6 2.2 6.6-56.3 0-46.4-.2-52.7-1.6-54.1-1.9-2-7.4-2.1-10-.2m49.2.2c-1.4 1.4-1.6 7.7-1.6 54.3 0 49.9.1 52.9 1.8 54.4 2.3 2.1 8.6 2.2 10.6.1.9-.8 1.8-2.5 2.1-3.7s.4-25.1.3-53c-.3-49-.4-50.9-2.2-52.3-2.6-1.9-9.1-1.8-11 .2m-73.7 18.3-2.4 1.9v68.4l2.4 1.9c3.2 2.6 6.7 2.4 9.6-.6l2.5-2.4v-66.2l-2.5-2.4c-2.9-3-6.4-3.2-9.6-.6m98.6.6-2.5 2.4v66.2l2.5 2.4c2.9 3 7.4 3.2 10.6.6l2.4-1.9v-68.4l-2.4-1.9c-3.2-2.6-7.7-2.4-10.6.6m-122 10.7c-1.1.6-2.3 1.6-2.7 2.2s-.8 10.8-.8 22.7c0 24.3.2 24.9 7.3 24.9 6.3 0 6.7-1.5 6.7-25.3 0-20.7 0-20.8-2.5-23.2-2.6-2.7-4.9-3.1-8-1.3m147 1.3c-2.5 2.4-2.5 2.5-2.5 23.2 0 24.3.3 25.3 7.4 25.3 7.5 0 7.6-.5 7.6-25.1 0-11.8-.4-21.9-.8-22.5-1.1-1.6-4.8-3.4-7.2-3.4-1.1 0-3.2 1.1-4.5 2.5"/></svg>
